<svg width="25" height="21" viewBox="0 0 25 21" fill="none" xmlns="http://www.w3.org/2000/svg">
<path d="M22.1665 3.24998H12.4998L10.0832 0.833313H2.83317C1.504 0.833313 0.428587 1.92081 0.428587 3.24998L0.416504 17.75C0.416504 19.0791 1.504 20.1666 2.83317 20.1666H22.1665C23.4957 20.1666 24.5832 19.0791 24.5832 17.75V5.66665C24.5832 4.33748 23.4957 3.24998 22.1665 3.24998ZM7.46109 15.3333L4.0415 11.9137L5.74525 10.21L7.449 11.9137L11.7265 7.63623L13.4303 9.33998L7.46109 15.3333ZM19.0369 11.7083L20.9582 13.6296L19.2544 15.3333L17.3332 13.4121L15.4119 15.3333L13.7082 13.6296L15.6294 11.7083L13.7082 9.78706L15.4119 8.08331L17.3332 10.0046L19.2544 8.08331L20.9582 9.78706L19.0369 11.7083Z" fill="#27C6F0"/>
</svg>
