<svg width="47" height="28" viewBox="0 0 47 28" fill="none" xmlns="http://www.w3.org/2000/svg">
<path d="M1 13L10.5294 25L28 3" stroke="black" stroke-width="2" stroke-linecap="round" stroke-linejoin="round"/>
<path d="M37.5241 4.34729L36.7559 3.70711L37.5241 4.34729C38.1586 3.58592 38.1586 2.41408 37.5241 1.65271C37.1857 1.24652 36.6982 1 36.1667 1C35.6351 1 35.1477 1.24652 34.8092 1.65271L17.8333 22.0237L9.19081 11.6527C8.85232 11.2465 8.36491 11 7.83333 11C7.30176 11 6.81434 11.2465 6.47586 11.6527C5.84138 12.4141 5.84138 13.5859 6.47586 14.3473L16.4759 26.3473C16.8143 26.7535 17.3018 27 17.8333 27C18.3649 27 18.8523 26.7535 19.1908 26.3473L37.5241 4.34729Z" fill="black" stroke="white" stroke-width="2" stroke-linecap="round"/>
<path d="M45.5056 1.64037L44.7478 2.29289L45.5056 1.64037C44.7703 0.786544 43.5075 0.786544 42.7722 1.64037L25.1944 22.0533L16.2278 11.6404C15.4925 10.7865 14.2297 10.7865 13.4944 11.6404C12.8352 12.406 12.8352 13.594 13.4944 14.3596L23.8278 26.3596C24.563 27.2135 25.8259 27.2135 26.5611 26.3596L45.5056 4.35963L44.7478 3.70711L45.5056 4.35963C46.1648 3.59404 46.1648 2.40596 45.5056 1.64037Z" fill="black" stroke="white" stroke-width="2" stroke-linecap="round"/>
</svg>
