<svg width="16" height="17" viewBox="0 0 16 17" fill="none" xmlns="http://www.w3.org/2000/svg">
<path fill-rule="evenodd" clip-rule="evenodd" d="M10.5352 16.6255L13.8385 16.6291L13.8482 7.67346L15.4353 7.67518L15.438 5.18731L13.8508 5.18559L13.8554 1.0002L3.98845 0.989526C3.82676 2.32642 3.64037 3.72135 3.42928 5.17432L0.510822 5.17116L0.50813 7.65903L3.05446 7.66178C2.77411 9.47698 2.54353 10.8085 2.36271 11.6565C2.16928 12.5899 1.96191 13.231 1.7406 13.58C1.5193 13.9218 1.2198 14.0926 0.842081 14.0922L0.00339728 14.0912L0.000436189 16.8279L1.25603 16.8293C2.36066 16.8447 3.23756 16.5535 3.88674 15.9555C4.53591 15.3576 5.02877 14.3247 5.36532 12.857C5.62475 11.7437 5.91328 10.0131 6.23091 7.66522L10.5449 7.66989L10.5352 16.6255ZM10.5476 5.18202L10.5492 3.75466L6.72212 3.75052L6.55015 5.17769L10.5476 5.18202Z" fill="black" fill-opacity="0.5"/>
</svg>
