<svg width="12" height="13" viewBox="0 0 12 13" fill="none" xmlns="http://www.w3.org/2000/svg">
<path fill-rule="evenodd" clip-rule="evenodd" d="M8.18742 12.1555L10.7547 12.1583L10.7622 5.19806L11.9956 5.1994L11.9977 3.26585L10.7643 3.26451L10.7678 0.0116366L3.09931 0.00333923C2.97364 1.04237 2.82878 2.12651 2.66473 3.25575L0.396386 3.25329L0.394294 5.18685L2.37342 5.18899C2.15554 6.59973 1.97633 7.6346 1.8358 8.2936C1.68547 9.01902 1.5243 9.51734 1.3523 9.78856C1.18031 10.0542 0.947538 10.1869 0.653981 10.1866L0.00216235 10.1859L-0.000138983 12.3128L0.975701 12.3139C1.83421 12.3259 2.51573 12.0995 3.02026 11.6348C3.5248 11.1701 3.90785 10.3674 4.16941 9.22664C4.37104 8.36137 4.59528 7.01638 4.84213 5.19166L8.19496 5.19529L8.18742 12.1555ZM8.19705 3.26173L8.19825 2.15238L5.2239 2.14916L5.09024 3.25837L8.19705 3.26173Z" fill="black"/>
</svg>
