<svg width="21" height="21" viewBox="0 0 21 21" fill="none" xmlns="http://www.w3.org/2000/svg">
<path fill-rule="evenodd" clip-rule="evenodd" d="M14.1263 20.57L18.3332 20.5745L18.3455 9.16902L20.3667 9.1712L20.3702 6.00275L18.3489 6.00057L18.3547 0.670222L5.78859 0.656625C5.58266 2.35924 5.34528 4.13577 5.07645 5.98621L1.35948 5.98218L1.35605 9.15063L4.59909 9.15414C4.24206 11.4659 3.94839 13.1617 3.71811 14.2416C3.47176 15.4303 3.20766 16.2469 2.92582 16.6913C2.64398 17.1267 2.26254 17.3441 1.7815 17.3436L0.713385 17.3424L0.709614 20.8277L2.30869 20.8295C3.7155 20.8491 4.83228 20.4782 5.65905 19.7167C6.48582 18.9552 7.1135 17.6398 7.54211 15.7706C7.87252 14.3527 8.23998 12.1486 8.64449 9.15852L14.1387 9.16446L14.1263 20.57ZM14.1421 5.99601L14.144 4.17819L9.27008 4.17292L9.05106 5.99051L14.1421 5.99601Z" fill="white"/>
</svg>
