<svg width="11" height="11" viewBox="0 0 11 11" fill="none" xmlns="http://www.w3.org/2000/svg">
<path fill-rule="evenodd" clip-rule="evenodd" d="M6.82391 10.245L8.96368 10.2473L8.96996 4.44542L9.99825 4.44654L9.99999 2.83494L8.9717 2.83382L8.97464 0.123224L2.58301 0.116309C2.47829 0.982136 2.35758 1.88554 2.22088 2.82652L0.330393 2.82447L0.328649 4.43607L1.97808 4.43786C1.79643 5.61403 1.64703 6.4768 1.52988 7.02617C1.40458 7.63081 1.27025 8.04615 1.12689 8.27221C0.983535 8.49365 0.789519 8.60424 0.544842 8.60397L0.00155607 8.60338L-0.000362074 10.3761L0.812992 10.377C1.52855 10.387 2.09659 10.1984 2.51712 9.81103C2.93764 9.42369 3.25691 8.75464 3.47492 7.80386C3.643 7.08256 3.82993 5.9613 4.03572 4.44009L6.83018 4.44311L6.82391 10.245ZM6.83193 2.83151L6.83293 1.90752L4.35383 1.90484L4.24251 2.82871L6.83193 2.83151Z" fill="#D4A222"/>
</svg>
