<svg width="10" height="9" viewBox="0 0 10 9" fill="none" xmlns="http://www.w3.org/2000/svg">
<path fill-rule="evenodd" clip-rule="evenodd" d="M6.59311 8.76607L8.41258 8.76804L8.41792 3.83517L9.29199 3.83611L9.29347 2.46575L8.4194 2.46481L8.42189 0.159401L2.98703 0.15352C2.89796 0.889912 2.79529 1.65827 2.67902 2.4586L1.07131 2.45686L1.06983 3.82722L2.47256 3.82873C2.31815 4.82856 2.19114 5.562 2.09154 6.02904C1.985 6.54317 1.87077 6.89634 1.74887 7.08856C1.62698 7.27685 1.46201 7.37089 1.25395 7.37066L0.791994 7.37016L0.790363 8.87756L1.48197 8.87831C2.09041 8.88682 2.57342 8.72639 2.931 8.39704C3.28858 8.06768 3.56005 7.49878 3.74543 6.69032C3.88833 6.07708 4.04726 5.12385 4.22221 3.83063L6.59844 3.8332L6.59311 8.76607ZM6.59993 2.46284L6.60078 1.6766L4.49278 1.67432L4.39805 2.46046L6.59993 2.46284Z" fill="#4BC389"/>
</svg>
