<svg width="15" height="16" viewBox="0 0 15 16" fill="none" xmlns="http://www.w3.org/2000/svg">
<path fill-rule="evenodd" clip-rule="evenodd" d="M10.2359 15.3586L13.4454 15.3621L13.4548 6.66058L14.997 6.66225L14.9997 4.24496L13.4575 4.24329L13.4619 0.176535L3.87483 0.166162C3.71772 1.46516 3.53661 2.82055 3.33151 4.23233L0.495882 4.22926L0.493267 6.64656L2.96732 6.64924C2.69493 8.41289 2.4709 9.70665 2.29521 10.5305C2.10726 11.4374 1.90578 12.0604 1.69075 12.3995C1.47573 12.7316 1.18472 12.8975 0.817716 12.8971L0.00282298 12.8962L-5.41122e-05 15.5553L1.21992 15.5566C2.29321 15.5716 3.14524 15.2886 3.776 14.7076C4.40677 14.1266 4.88565 13.1231 5.21264 11.697C5.46472 10.6152 5.74506 8.93378 6.05367 6.65257L10.2453 6.65711L10.2359 15.3586ZM10.2479 4.23981L10.2494 2.85286L6.53096 2.84884L6.36385 4.23561L10.2479 4.23981Z" fill="#185CCD"/>
</svg>
