<svg width="44" height="35" viewBox="0 0 44 35" fill="none" xmlns="http://www.w3.org/2000/svg">
<path d="M13.8188 9.5631C14.2915 9.27735 14.443 8.66258 14.1572 8.18996C13.8715 7.71734 13.2567 7.56584 12.7841 7.85158L13.8188 9.5631ZM9.1438 11.221L9.65798 12.0787L9.66118 12.0768L9.1438 11.221ZM7.15146 17.8017L7.65384 18.6663L8.15146 18.3772V17.8017H7.15146ZM2.02646 20.7794L2.52732 21.6449L2.52884 21.6441L2.02646 20.7794ZM1.27693 23.596L2.14433 23.0984L2.14265 23.0955L1.27693 23.596ZM6.40193 32.5292L7.27008 32.0329L7.26932 32.0316L6.40193 32.5292ZM9.20146 33.2833L9.70232 34.1488L9.70375 34.148L9.20146 33.2833ZM15.8255 29.4355V28.4355H15.5562L15.3232 28.5708L15.8255 29.4355ZM28.6765 25.5611V24.5611H27.6765V25.5611H28.6765ZM31.7515 20.5611V19.5611H30.7515V20.5611H31.7515ZM34.264 21.5611C34.8162 21.5611 35.264 21.1134 35.264 20.5611C35.264 20.0088 34.8162 19.5611 34.264 19.5611V21.5611ZM42.1642 10.9631L43.0323 10.4668L43.0316 10.4654L42.1642 10.9631ZM37.0392 2.02986L36.171 2.52616L36.1718 2.52748L37.0392 2.02986ZM34.2396 1.27575L33.7388 0.410223L33.7373 0.411057L34.2396 1.27575ZM27.6156 5.12361V6.12361H27.8849L28.1179 5.9883L27.6156 5.12361ZM18.8967 5.7488L18.3688 4.89943L18.365 4.90183L18.8967 5.7488ZM16.7506 7.09587L17.278 7.94549L17.2822 7.94285L16.7506 7.09587ZM20.9146 14.3111V13.3111C20.3623 13.3111 19.9146 13.7588 19.9146 14.3111H20.9146ZM36.2896 17.7574H35.2896C35.2896 18.1391 35.507 18.4876 35.8498 18.6555C36.1927 18.8234 36.6012 18.7814 36.9028 18.5474L36.2896 17.7574ZM41.4146 13.7797L40.9095 12.9166L40.8531 12.9496L40.8015 12.9897L41.4146 13.7797ZM12.7841 7.85158L8.62642 10.3653L9.66118 12.0768L13.8188 9.5631L12.7841 7.85158ZM8.62963 10.3633C7.08869 11.2871 6.15146 12.9616 6.15146 14.753H8.15146C8.15146 13.657 8.7261 12.6373 9.65798 12.0787L8.62963 10.3633ZM6.15146 14.753V17.8017H8.15146V14.753H6.15146ZM6.64908 16.937L1.52408 19.9148L2.52884 21.6441L7.65384 18.6663L6.64908 16.937ZM1.5256 19.9139C0.0673217 20.7578 -0.435173 22.6327 0.411213 24.0965L2.14265 23.0955C1.84872 22.5871 2.02529 21.9355 2.52732 21.6449L1.5256 19.9139ZM0.409538 24.0936L5.53454 33.0268L7.26932 32.0316L2.14432 23.0984L0.409538 24.0936ZM5.53378 33.0255C6.37361 34.4946 8.24405 34.9927 9.70232 34.1488L8.7006 32.4178C8.19856 32.7083 7.55774 32.5361 7.27008 32.0329L5.53378 33.0255ZM9.70375 34.148L16.3278 30.3002L15.3232 28.5708L8.69917 32.4186L9.70375 34.148ZM15.8255 30.4355H24.5765V28.4355H15.8255V30.4355ZM24.5765 30.4355C27.3118 30.4355 29.6765 28.4638 29.6765 25.5611H27.6765C27.6765 27.2088 26.3639 28.4355 24.5765 28.4355V30.4355ZM28.6765 26.5611H29.7015V24.5611H28.6765V26.5611ZM29.7015 26.5611C30.6273 26.5611 31.3996 26.084 31.9132 25.4804C32.4253 24.8787 32.7515 24.0746 32.7515 23.248H30.7515C30.7515 23.5622 30.6196 23.9146 30.3901 24.1843C30.1622 24.4521 29.9095 24.5611 29.7015 24.5611V26.5611ZM32.7515 23.248V20.5611H30.7515V23.248H32.7515ZM31.7515 21.5611H34.264V19.5611H31.7515V21.5611ZM43.0316 10.4654L37.9066 1.53223L36.1718 2.52748L41.2968 11.4607L43.0316 10.4654ZM37.9073 1.53355C37.0675 0.0644976 35.197 -0.43364 33.7388 0.410224L34.7405 2.14128C35.2425 1.85077 35.8833 2.02295 36.171 2.52616L37.9073 1.53355ZM33.7373 0.411057L27.1133 4.25891L28.1179 5.9883L34.7419 2.14045L33.7373 0.411057ZM27.6156 4.12361H21.0684V6.12361H27.6156V4.12361ZM21.0684 4.12361C20.1085 4.12361 19.1767 4.3974 18.3688 4.89944L19.4245 6.59817C19.9234 6.2881 20.4908 6.12361 21.0684 6.12361V4.12361ZM18.365 4.90183L16.2189 6.2489L17.2822 7.94285L19.4283 6.59578L18.365 4.90183ZM16.2231 6.24627C15.3184 6.80789 14.7896 7.79802 14.7896 8.84255H16.7896C16.7896 8.46912 16.9783 8.13151 17.278 7.94548L16.2231 6.24627ZM14.7896 8.84255V16.983H16.7896V8.84255H14.7896ZM14.7896 16.983C14.7896 18.9539 16.3783 20.5611 18.3521 20.5611V18.5611C17.4943 18.5611 16.7896 17.8609 16.7896 16.983H14.7896ZM18.3521 20.5611C20.3259 20.5611 21.9146 18.9539 21.9146 16.983H19.9146C19.9146 17.8608 19.2099 18.5611 18.3521 18.5611V20.5611ZM21.9146 16.983V14.3111H19.9146V16.983H21.9146ZM20.9146 15.3111H32.7021V13.3111H20.9146V15.3111ZM32.7021 15.3111C33.6201 15.3111 34.2947 15.4601 34.7106 15.7184C35.048 15.928 35.2896 16.2484 35.2896 16.9205H37.2896C37.2896 15.6009 36.7273 14.6167 35.7658 14.0195C34.8828 13.471 33.7637 13.3111 32.7021 13.3111V15.3111ZM35.2896 16.9205V17.7574H37.2896V16.9205H35.2896ZM36.9028 18.5474L42.0278 14.5696L40.8015 12.9897L35.6765 16.9674L36.9028 18.5474ZM41.9197 14.6427C43.3751 13.791 43.8671 11.927 43.0323 10.4668L41.296 11.4594C41.5887 11.9714 41.4145 12.6211 40.9095 12.9166L41.9197 14.6427Z" fill="white"/>
<path d="M26.501 20.561H31.001" stroke="white" stroke-width="2" stroke-linecap="round"/>
<path d="M26.501 25.561H29.001" stroke="white" stroke-width="2" stroke-linecap="round"/>
</svg>
