<svg width="9" height="9" viewBox="0 0 9 9" fill="none" xmlns="http://www.w3.org/2000/svg">
<path fill-rule="evenodd" clip-rule="evenodd" d="M8.53964 1.58114L8.53965 6.78085C8.53965 6.95324 8.47117 7.11856 8.34928 7.24045C8.22738 7.36234 8.06206 7.43082 7.88968 7.43082C7.7173 7.43082 7.55198 7.36234 7.43009 7.24045C7.3082 7.11856 7.23972 6.95324 7.23972 6.78085L7.23972 3.15016L1.85022 8.54096C1.72817 8.663 1.56264 8.73157 1.39004 8.73157C1.21744 8.73157 1.05191 8.663 0.929868 8.54096C0.807823 8.41891 0.739258 8.25338 0.739258 8.08078C0.739258 7.90818 0.807823 7.74265 0.929868 7.62061L6.32067 2.23111L2.68997 2.23111C2.51759 2.23111 2.35227 2.16263 2.23038 2.04074C2.10848 1.91885 2.04001 1.75352 2.04001 1.58114C2.04001 1.40876 2.10848 1.24344 2.23038 1.12155C2.35227 0.999658 2.51759 0.93118 2.68997 0.93118L7.88968 0.93118C8.06206 0.93118 8.22738 0.999657 8.34928 1.12155C8.47117 1.24344 8.53964 1.40876 8.53964 1.58114Z" fill="#3E3E3E"/>
</svg>
