<svg width="21" height="16" viewBox="0 0 21 16" fill="none" xmlns="http://www.w3.org/2000/svg">
<path d="M6 15C7.10457 15 8 14.1046 8 13C8 11.8954 7.10457 11 6 11C4.89543 11 4 11.8954 4 13C4 14.1046 4.89543 15 6 15Z" stroke="#27C6F0" stroke-width="2" stroke-linecap="round" stroke-linejoin="round"/>
<path d="M16 15C17.1046 15 18 14.1046 18 13C18 11.8954 17.1046 11 16 11C14.8954 11 14 11.8954 14 13C14 14.1046 14.8954 15 16 15Z" stroke="#27C6F0" stroke-width="2" stroke-linecap="round" stroke-linejoin="round"/>
<path d="M4 13H2V9M1 1H12V13M8 13H14M18 13H20V7M20 7H12M20 7L17 2H12" stroke="#27C6F0" stroke-width="2" stroke-linecap="round" stroke-linejoin="round"/>
<path d="M2 5H6" stroke="#27C6F0" stroke-width="2" stroke-linecap="round" stroke-linejoin="round"/>
</svg>
