<svg width="30" height="42" viewBox="0 0 30 42" fill="none" xmlns="http://www.w3.org/2000/svg">
<g clip-path="url(#clip0)">
<path d="M3.5 16C4.07412 13.702 4.07412 11.298 3.5 9C4.83758 9.78139 6.02323 10.7977 7 12C7.86126 13.2268 8.53529 14.5749 9 16C9.63974 13.2112 9.97504 10.3612 10 7.5C9.9433 6.0802 9.60464 4.68587 9.00375 3.39825C8.40286 2.11062 7.55175 0.955444 6.5 0C8.5881 0.0368315 10.6402 0.549865 12.5 1.5C14.93 2.82 15.5 3 18 6.5C20 9.3 21.17 15 21.5 17.5C22.0122 16.0454 22.3479 14.5346 22.5 13V7.5C24.5458 9.82061 26.0792 12.5466 27 15.5C28 18.5 29.5 24.5 29 29C28.5 33.5 24.5 42 14.5 42C4.5 42 0 32.5 0 28C0 23.5 2.5 19 3.5 16Z" fill="#FB066B"/>
<path d="M8.22 1.99998C9.04956 2.23952 9.8483 2.57513 10.6 2.99998C13.03 4.31998 13.6 4.49998 16.1 7.99998C18.1 10.8 19.27 16.5 19.6 19C20.1122 17.5454 20.4479 16.0346 20.6 14.5V13C20.1025 10.7158 19.2235 8.53191 18 6.53998C15.5 3.03998 14.93 2.85998 12.5 1.53998C10.6402 0.589843 8.5881 0.0768095 6.5 0.039978C7.15436 0.617496 7.73236 1.27615 8.22 1.99998Z" fill="#E20560"/>
<path d="M5.10001 13.49C5.96127 14.7168 6.6353 16.0649 7.10001 17.49C7.42177 16.1216 7.66549 14.736 7.83001 13.34C7.57001 12.89 7.30001 12.43 7.01001 12C6.03324 10.7977 4.84759 9.78139 3.51001 9C3.75526 10.0505 3.89925 11.122 3.94001 12.2C4.38009 12.5788 4.76992 13.0123 5.10001 13.49Z" fill="#E20560"/>
<path d="M27 15.5C26.0791 12.5466 24.5458 9.82061 22.5 7.5V11.5C23.5804 13.2244 24.4532 15.0706 25.1 17C26.1 20 27.6 26 27.1 30.5C26.6058 34.0375 24.9363 37.306 22.36 39.78C24.1575 38.5457 25.6768 36.949 26.8204 35.0924C27.9639 33.2359 28.7064 31.1606 29 29C29.5 24.5 28 18.5 27 15.5Z" fill="#E20560"/>
</g>
<defs>
<clipPath id="clip0">
<rect width="29.1" height="42" fill="white"/>
</clipPath>
</defs>
</svg>
