<svg width="38" height="38" viewBox="0 0 38 38" fill="none" xmlns="http://www.w3.org/2000/svg">
<rect x="32.5737" y="12.5872" width="11.4424" height="9.68201" transform="rotate(135 32.5737 12.5872)" fill="#A06103"/>
<rect x="32.5737" y="12.5872" width="11.4424" height="0.880183" transform="rotate(135 32.5737 12.5872)" fill="#D4A222"/>
<rect x="26.35" y="6.36334" width="11.4424" height="0.880183" transform="rotate(135 26.35 6.36334)" fill="#D4A222"/>
<rect x="21.3708" y="21.3005" width="15.8433" height="6.16128" rx="3" transform="rotate(135 21.3708 21.3005)" fill="#A06103"/>
<rect x="23.4091" y="17.3527" width="9.51382" height="3.46055" rx="1.73028" transform="rotate(135 23.4091 17.3527)" fill="#A06103"/>
<path d="M36.1386 13.6625C36.9197 14.4436 36.9197 15.7099 36.1386 16.4909L28.3866 24.243C27.6055 25.0241 26.3392 25.0241 25.5581 24.243L23.9451 22.63C23.5546 22.2395 23.5546 21.6064 23.9451 21.2158L33.1114 12.0495C33.502 11.659 34.1351 11.659 34.5257 12.0495L36.1386 13.6625Z" fill="#A06103"/>
<path d="M26.2652 3.78911C26.6557 4.17963 26.6557 4.8128 26.2652 5.20332L17.0989 14.3696C16.7084 14.7602 16.0752 14.7602 15.6847 14.3696L14.0717 12.7566C13.2906 11.9756 13.2906 10.7093 14.0717 9.92822L21.8238 2.17613C22.6048 1.39508 23.8712 1.39508 24.6522 2.17613L26.2652 3.78911Z" fill="#A06103"/>
</svg>
