<svg width="20" height="15" viewBox="0 0 20 15" fill="none" xmlns="http://www.w3.org/2000/svg">
<path d="M13.6668 12.5833V14.4167H0.833496V12.5833C0.833496 12.5833 0.833496 8.91667 7.25016 8.91667C13.6668 8.91667 13.6668 12.5833 13.6668 12.5833ZM10.4585 3.87501C10.4585 3.24046 10.2703 2.62016 9.9178 2.09255C9.56526 1.56495 9.06419 1.15373 8.47794 0.910894C7.89169 0.668063 7.2466 0.604527 6.62425 0.728322C6.00189 0.852116 5.43022 1.15768 4.98153 1.60637C4.53284 2.05507 4.22727 2.62674 4.10348 3.24909C3.97968 3.87145 4.04322 4.51654 4.28605 5.10278C4.52888 5.68903 4.9401 6.1901 5.46771 6.54264C5.99532 6.89517 6.61561 7.08334 7.25016 7.08334C8.10107 7.08334 8.91712 6.74532 9.5188 6.14364C10.1205 5.54196 10.4585 4.72591 10.4585 3.87501ZM13.6118 8.91667C14.1753 9.35277 14.6365 9.90707 14.9627 10.5406C15.2889 11.174 15.4724 11.8713 15.5002 12.5833V14.4167H19.1668V12.5833C19.1668 12.5833 19.1668 9.25584 13.6118 8.91667ZM12.7502 0.666674C12.1192 0.663161 11.5021 0.8518 10.981 1.20751C11.5378 1.98552 11.8372 2.91827 11.8372 3.87501C11.8372 4.83175 11.5378 5.7645 10.981 6.54251C11.5021 6.89821 12.1192 7.08685 12.7502 7.08334C13.6011 7.08334 14.4171 6.74532 15.0188 6.14364C15.6205 5.54196 15.9585 4.72591 15.9585 3.87501C15.9585 3.0241 15.6205 2.20805 15.0188 1.60637C14.4171 1.00469 13.6011 0.666674 12.7502 0.666674Z" fill="black" fill-opacity="0.3"/>
</svg>
