<svg width="13" height="15" viewBox="0 0 13 15" fill="none" xmlns="http://www.w3.org/2000/svg">
<path d="M11.6404 1.37264C9.82885 -0.457548 6.87885 -0.457548 5.06924 1.37264L0.0500178 6.43967C0.0173256 6.4727 1.77786e-05 6.51739 1.77786e-05 6.56402C1.77786e-05 6.61065 0.0173256 6.65533 0.0500178 6.68836L0.759632 7.40528C0.792068 7.43791 0.835976 7.45623 0.881747 7.45623C0.927518 7.45623 0.971426 7.43791 1.00386 7.40528L6.02308 2.33826C6.64616 1.70876 7.475 1.36293 8.35577 1.36293C9.23654 1.36293 10.0654 1.70876 10.6865 2.33826C11.3096 2.96775 11.6519 3.80513 11.6519 4.69302C11.6519 5.58286 11.3096 6.4183 10.6865 7.04779L5.57116 12.2139L4.74232 13.0513C3.96732 13.8343 2.70771 13.8343 1.93271 13.0513C1.55771 12.6724 1.35194 12.1692 1.35194 11.633C1.35194 11.0968 1.55771 10.5935 1.93271 10.2147L7.0077 5.08937C7.13654 4.96114 7.30577 4.88926 7.48654 4.88926H7.48847C7.66924 4.88926 7.83654 4.96114 7.96346 5.08937C8.09231 5.21954 8.16154 5.39052 8.16154 5.57315C8.16154 5.75384 8.09039 5.92481 7.96346 6.05304L3.8154 10.2399C3.7827 10.273 3.7654 10.3177 3.7654 10.3643C3.7654 10.4109 3.7827 10.4556 3.8154 10.4886L4.52501 11.2056C4.55745 11.2382 4.60135 11.2565 4.64712 11.2565C4.6929 11.2565 4.7368 11.2382 4.76924 11.2056L8.91539 7.01671C9.29808 6.63008 9.50769 6.11716 9.50769 5.57121C9.50769 5.02526 9.29615 4.51039 8.91539 4.1257C8.125 3.32718 6.84039 3.32912 6.05001 4.1257L5.5577 4.62502L0.976939 9.25102C0.666037 9.56328 0.419591 9.93479 0.251893 10.344C0.0841947 10.7532 -0.0014186 11.192 1.77786e-05 11.6349C1.77786e-05 12.5345 0.348094 13.3796 0.976939 14.015C1.62886 14.6717 2.48271 15 3.33655 15C4.19039 15 5.04424 14.6717 5.69424 14.015L11.6404 8.01146C12.5154 7.12551 13 5.94618 13 4.69302C13.0019 3.43792 12.5173 2.2586 11.6404 1.37264Z" fill="black"/>
</svg>
