<svg width="24" height="35" viewBox="0 0 24 35" fill="none" xmlns="http://www.w3.org/2000/svg">
<path d="M20.8364 18.3148C19.2504 19.988 18.0179 21.5356 17.1622 22.9555C16.2833 24.4141 15.8 25.8717 15.8 27.3125C15.8 27.347 15.7943 27.3626 15.7912 27.37C15.7877 27.3782 15.7767 27.4007 15.7404 27.4367C15.6842 27.4922 15.6534 27.5 15.6 27.5H8.4C8.34656 27.5 8.3158 27.4922 8.25964 27.4367C8.22335 27.4007 8.21233 27.3782 8.20884 27.37C8.20568 27.3626 8.2 27.347 8.2 27.3125C8.2 25.8717 7.71669 24.4141 6.83776 22.9555C5.98208 21.5356 4.74962 19.988 3.1636 18.3148C1.71655 16.3956 1 14.2592 1 11.875C1 9.89813 1.49123 8.08906 2.47332 6.42786C3.4605 4.75804 4.79252 3.4394 6.48228 2.46113C8.16368 1.48771 9.99645 1 12 1C14.0036 1 15.8363 1.48771 17.5177 2.46113C19.2075 3.4394 20.5395 4.75804 21.5267 6.42786C22.5088 8.08906 23 9.89813 23 11.875C23 14.2592 22.2834 16.3956 20.8364 18.3148Z" stroke="white" stroke-width="2"/>
<path d="M10 17.4286V11H14V27" stroke="white" stroke-width="2" stroke-linecap="round" stroke-linejoin="round"/>
<path d="M9 31H15" stroke="white" stroke-width="2" stroke-linecap="round"/>
<path d="M10 34H14" stroke="white" stroke-width="2" stroke-linecap="round"/>
</svg>
