<svg width="23" height="18" viewBox="0 0 23 18" fill="none" xmlns="http://www.w3.org/2000/svg">
<path d="M20.4074 3.25787C19.6117 1.73352 17.3195 0.486321 14.6531 1.21247C13.379 1.55599 12.2674 2.29269 11.4999 3.30221C10.7323 2.29269 9.62069 1.55599 8.34659 1.21247C5.67432 0.497407 3.38805 1.73352 2.59231 3.25787C1.47589 5.39195 1.93909 7.79211 3.97001 10.3918C5.5615 12.4261 7.83589 14.4882 11.1376 16.8828C11.242 16.9587 11.3705 17 11.5028 17C11.6352 17 11.7637 16.9587 11.868 16.8828C15.1638 14.4937 17.4442 12.4483 19.0357 10.3918C21.0606 7.79211 21.5238 5.39195 20.4074 3.25787V3.25787Z" stroke="black" stroke-width="2"/>
</svg>
