<svg width="406" height="244" viewBox="0 0 406 244" fill="none" xmlns="http://www.w3.org/2000/svg">
<path fill-rule="evenodd" clip-rule="evenodd" d="M179.081 209.273C196.748 209.273 213.456 205.423 228.303 198.57C231.388 223.834 254.27 243.456 282.039 243.456C305.527 243.456 325.517 229.418 332.991 209.803C336.206 210.362 339.522 210.654 342.91 210.654C372.783 210.654 397 187.946 397 159.934C397 135.117 377.991 114.463 352.881 110.075C346.018 89.4507 325.492 74.4808 301.237 74.4808C296.147 74.4808 291.222 75.1399 286.553 76.372C273.402 32.3137 230.266 0 179.081 0C117.451 0 67.49 46.8474 67.49 104.637C67.49 110.669 68.0344 116.582 69.0795 122.334C67.7623 122.244 66.432 122.199 65.0902 122.199C35.217 122.199 11 144.906 11 172.918C11 200.93 35.217 223.637 65.0902 223.637C71.5646 223.637 77.7733 222.571 83.5274 220.615C93.2824 233.887 109.606 242.587 128.096 242.587C151.448 242.587 171.344 228.711 178.918 209.273C178.972 209.273 179.026 209.273 179.081 209.273Z" fill="url(#paint0_linear)"/>
<path fill-rule="evenodd" clip-rule="evenodd" d="M179.081 209.273C196.748 209.273 213.456 205.423 228.303 198.57C231.388 223.834 254.27 243.456 282.039 243.456C305.527 243.456 325.517 229.418 332.991 209.803C336.206 210.362 339.522 210.654 342.91 210.654C372.783 210.654 397 187.946 397 159.934C397 135.117 377.991 114.463 352.881 110.075C346.018 89.4507 325.492 74.4808 301.237 74.4808C296.147 74.4808 291.222 75.1399 286.553 76.372C273.402 32.3137 230.266 0 179.081 0C117.451 0 67.49 46.8474 67.49 104.637C67.49 110.669 68.0344 116.582 69.0795 122.334C67.7623 122.244 66.432 122.199 65.0902 122.199C35.217 122.199 11 144.906 11 172.918C11 200.93 35.217 223.637 65.0902 223.637C71.5646 223.637 77.7733 222.571 83.5274 220.615C93.2824 233.887 109.606 242.587 128.096 242.587C151.448 242.587 171.344 228.711 178.918 209.273C178.972 209.273 179.026 209.273 179.081 209.273Z" fill="#E5F1FF"/>
<path d="M86.1016 95.8096C93.5374 97.4043 111.219 122.536 114.5 133.5L130 189H58.2171C58.2172 184.847 55.1555 171.06 42.9082 149.132C27.5992 121.724 14.4772 103.285 20.4914 97.803C26.5057 92.3212 76.8068 93.8163 86.1016 95.8096Z" fill="#98CCFE"/>
<path fill-rule="evenodd" clip-rule="evenodd" d="M27.7125 98.8837C28.0529 98.4488 28.6814 98.3722 29.1164 98.7125C32.1243 101.067 35.6904 105.521 39.3952 110.965C43.1191 116.438 47.0452 123.005 50.7641 129.671C58.1985 142.996 64.8437 156.784 67.4261 163.123C72.965 176.718 73.1849 184.891 72.9939 186.61C72.9329 187.159 72.4385 187.555 71.8896 187.494C71.3407 187.433 70.9452 186.939 71.0062 186.39C71.1485 185.109 71.0351 177.282 65.574 163.877C63.0318 157.638 56.427 143.926 49.0176 130.645C45.3146 124.008 41.4203 117.497 37.7417 112.091C34.0441 106.657 30.6258 102.434 27.8837 100.288C27.4488 99.9472 27.3722 99.3187 27.7125 98.8837Z" fill="white"/>
<path d="M14 188H390V243H14V188Z" fill="white"/>
<path fill-rule="evenodd" clip-rule="evenodd" d="M13 189C13 188.448 13.4477 188 14 188H125.16C125.712 188 126.16 188.448 126.16 189C126.16 189.552 125.712 190 125.16 190H14C13.4477 190 13 189.552 13 189ZM157.15 189C157.15 188.448 157.597 188 158.15 188H388C388.552 188 389 188.448 389 189C389 189.552 388.552 190 388 190H158.15C157.597 190 157.15 189.552 157.15 189Z" fill="#98CCFE"/>
<path fill-rule="evenodd" clip-rule="evenodd" d="M0 189C0 188.448 0.447715 188 1 188H9.5C10.0523 188 10.5 188.448 10.5 189C10.5 189.552 10.0523 190 9.5 190H1C0.447715 190 0 189.552 0 189Z" fill="#98CCFE"/>
<path fill-rule="evenodd" clip-rule="evenodd" d="M395 189C395 188.448 395.448 188 396 188H404.5C405.052 188 405.5 188.448 405.5 189C405.5 189.552 405.052 190 404.5 190H396C395.448 190 395 189.552 395 189Z" fill="#98CCFE"/>
<path d="M192.518 160.837C169.749 150.629 156.071 129.744 151.361 120.025C151.509 117.853 153.151 112.947 158.541 110.695C163.93 108.443 173.431 112.63 177.507 115.005C194.733 128.26 209.418 141.845 210.523 140.41C211.627 138.975 235.998 126.113 245.533 121.642L250.06 129.125C222.998 164.293 215.288 171.045 192.518 160.837Z" fill="#98CCFE"/>
<path d="M97.309 199.9C101.392 220.943 170.712 222.878 178.202 217.363C183.695 213.319 159.726 208.172 140.252 206.333C107.296 203.223 94.8122 187.032 97.309 199.9Z" fill="#E5F1FF"/>
<path d="M177 208C173 204.8 166 204.667 163 205C161.167 207.333 158.2 212.7 161 215.5C163.8 218.3 177 220 179.5 217.5C180.667 215.167 181 211.2 177 208Z" fill="#FEC5A7"/>
<path d="M83.7004 100.357C61.7572 122.812 78.579 151.142 89.7528 159.023C117.223 178.397 140.593 156.834 167.037 153.331C200.092 148.953 172.158 109.551 168.434 97.7299C164.709 85.9091 178.676 78.4663 180.073 59.2028C181.47 39.9393 158.069 28.5656 140.5 33.5C125.849 37.6149 119.15 47.1763 113.962 64.8943C105.116 95.103 99.5301 84.1579 83.7004 100.357Z" fill="#E20560"/>
<path d="M115.862 98.8881C129.997 91.3627 129.212 81.624 129.997 77.1974L168.162 71C166.906 74.5413 162.131 86.1393 160.623 93.5761C158.738 102.872 172.402 108.627 173.344 109.955C174.287 111.283 177.952 139.213 148.372 153.779C80.0527 187.422 84.7664 148.024 85.2376 132.974C85.7088 117.923 102.99 105.741 115.862 98.8881Z" fill="#AB0046"/>
<path d="M137.415 98.6881C142.358 95.1274 141.122 86.3738 141.122 84H155.951V94.6823C155.951 97.8869 158.732 100.172 160.122 100.914C162.748 105.81 168 117.471 168 124.949C168 134.296 162.902 131.625 155.951 132.96C150.39 134.029 136.333 113.228 130 102.694C131.081 102.546 133.843 101.261 137.415 98.6881Z" fill="#FEC5A7"/>
<path d="M156 87.5961V95.9418C154.556 96.1405 150.908 95.9418 147.875 93.5573C144.842 91.1728 143.361 88.1922 143 87L156 87.5961Z" fill="#FF896F"/>
<path d="M131 66C131 54.9543 139.954 46 151 46C162.046 46 171 54.9543 171 66V69C171 80.0457 162.046 89 151 89C139.954 89 131 80.0457 131 69V66Z" fill="#FEC5A7"/>
<path d="M111.208 110.354C118.729 104.183 125.297 103.749 133.234 101.256C138.078 109.844 150.141 127.063 159.635 127.234C169.13 127.406 163.626 109.414 159.5 100.5C164 102.5 170.92 107.558 176.489 112.997C179.306 115.749 182.938 123.502 182.942 127.234C185.064 131.042 187.024 135.589 188.181 141.038C191.272 155.602 180.491 164.08 183.064 188.301L129.994 188.301L118.252 208.558L96.1796 201.953C96.1796 201.953 85.016 180.814 93.0001 141.038C96.7134 122.538 102.5 117.5 111.208 110.354Z" fill="white"/>
<path fill-rule="evenodd" clip-rule="evenodd" d="M164.115 106.577C164.625 106.365 165.211 106.606 165.423 107.115C166.696 110.17 168.341 115.265 168.586 120.099C168.829 124.884 167.701 129.859 162.894 131.919C160.494 132.948 157.912 132.754 155.407 131.877C152.909 131.002 150.415 129.425 148.099 127.567C143.469 123.852 139.378 118.869 137.168 115.555C136.862 115.095 136.986 114.474 137.445 114.168C137.905 113.862 138.526 113.986 138.832 114.445C140.956 117.631 144.915 122.448 149.351 126.008C151.569 127.787 153.862 129.217 156.068 129.989C158.267 130.759 160.306 130.852 162.106 130.081C165.7 128.541 166.821 124.766 166.589 120.201C166.36 115.685 164.804 110.83 163.577 107.885C163.365 107.375 163.606 106.789 164.115 106.577Z" fill="#98CCFE"/>
<path d="M143.675 195.448C134.918 191.605 127.95 188.874 125.561 187.988L92.5002 189.141C94.8485 194.866 98.7634 205.916 107.449 208.819C116.135 211.721 147.072 214.132 160.018 214.727L163.2 205.583C159.936 203.188 152.433 199.291 143.675 195.448Z" fill="white"/>
<path fill-rule="evenodd" clip-rule="evenodd" d="M124.626 187.501C124.836 186.988 125.424 186.727 125.94 186.918C128.35 187.811 135.335 190.55 144.108 194.4C152.868 198.244 160.46 202.177 163.818 204.642L164.389 205.061L160.717 215.611L159.942 215.576C153.45 215.277 142.462 214.525 132.006 213.483C126.778 212.962 121.674 212.368 117.328 211.722C113.002 211.078 109.362 210.373 107.1 209.617C102.439 208.059 99.1368 204.347 96.7303 200.427C94.6443 197.029 93.1649 193.36 92.0533 190.603C91.8813 190.176 91.7182 189.771 91.5629 189.393C91.3568 188.89 91.6092 188.307 92.1268 188.09C92.6443 187.873 93.231 188.104 93.4371 188.607C93.598 188.999 93.7651 189.413 93.9395 189.845C95.0551 192.61 96.4704 196.117 98.4657 199.367C100.775 203.129 103.773 206.393 107.798 207.738C109.879 208.433 113.363 209.118 117.685 209.761C121.987 210.401 127.056 210.992 132.266 211.511C142.28 212.508 152.786 213.24 159.318 213.559L162.006 205.835C158.573 203.481 151.505 199.84 143.242 196.214C134.5 192.378 127.55 189.654 125.182 188.776C124.665 188.585 124.417 188.014 124.626 187.501Z" fill="#98CCFE"/>
<path d="M136 71C136 74.3137 133.09 77 129.5 77C125.91 77 123 74.3137 123 71C123 67.6863 125.91 65 129.5 65C133.09 65 136 67.6863 136 71Z" fill="#FEC5A7"/>
<path fill-rule="evenodd" clip-rule="evenodd" d="M122.904 140.005C123.454 139.948 123.946 140.347 124.003 140.896L123.008 141C124.003 140.896 124.003 140.896 124.003 140.896L124.007 140.937L124.019 141.053C124.029 141.156 124.045 141.306 124.063 141.501C124.101 141.89 124.155 142.455 124.217 143.16C124.341 144.571 124.502 146.542 124.645 148.791C124.93 153.275 125.15 158.903 124.872 163.364C124.438 170.308 123.969 175.744 123.608 179.446C123.427 181.298 123.273 182.716 123.165 183.672C123.11 184.15 123.067 184.513 123.038 184.757C123.023 184.878 123.012 184.971 123.004 185.033L122.995 185.103L122.992 185.127C122.992 185.127 122.992 185.128 122 185L122.992 185.127C122.922 185.675 122.42 186.062 121.872 185.992C121.325 185.921 120.938 185.42 121.008 184.872L121.011 184.851L121.019 184.785C121.027 184.725 121.038 184.635 121.052 184.516C121.081 184.277 121.124 183.919 121.178 183.446C121.285 182.5 121.438 181.093 121.617 179.252C121.976 175.571 122.444 170.158 122.876 163.239C123.146 158.909 122.933 153.386 122.649 148.918C122.507 146.689 122.348 144.734 122.225 143.336C122.163 142.638 122.11 142.078 122.073 141.694C122.054 141.502 122.039 141.354 122.029 141.254L122.018 141.141L122.014 141.104C121.956 140.555 122.355 140.063 122.904 140.005Z" fill="#98CCFE"/>
<path d="M149.911 58.6897C146.299 66.598 135.4 62.9216 132.5 68C131.695 64.8965 137.445 52.4263 137.832 49.3793C138.315 45.5705 146.531 43.4546 148.464 42.185C150.011 41.1693 160.063 44.5831 164.896 46.417C166.829 52.3417 172.835 65.9774 170.246 65.0376C160.5 61.5 161.5 51.9185 159.097 49.8026C157.7 48.5728 157.164 48.533 156.68 48.9562C155.713 47.6865 153.778 50.2257 152.811 51.9185C152.032 53.2833 151.845 54.4577 149.911 58.6897Z" fill="#FF896F"/>
<path d="M143.235 61.1417C140.748 63.1014 135.885 62.4276 132.5 68C130.888 66.7141 131.336 65.5 126.5 65.5C121.664 65.5 130.662 45.7106 143.235 41.4241C155.808 37.1377 163.545 43.1387 169.831 51.2829C174.704 57.5956 173.011 62.8084 170.995 64.8161C171.374 64.9565 171.393 64.9995 170.8 64.9995C170.865 64.9417 170.93 64.8805 170.995 64.8161C170.177 64.5131 167.681 63.7565 166.029 61.999C164.014 59.8558 162.16 58.1413 162.16 52.5689C162.16 48.0585 158.709 46.9965 156.291 48.2824C154.357 46.5679 151.145 47.2722 150.005 48.2824C147.104 50.8543 148.675 56.8553 143.235 61.1417Z" fill="#E20560"/>
<path fill-rule="evenodd" clip-rule="evenodd" d="M158.175 67.0379C158.707 67.1886 159.015 67.7415 158.864 68.2728C158.454 69.7191 158.557 70.8204 158.711 71.6387C158.751 71.8494 158.794 72.0425 158.837 72.2309C158.839 72.2399 158.841 72.2489 158.843 72.2579C158.882 72.4296 158.924 72.6142 158.953 72.7827C158.983 72.9545 159.013 73.1777 158.995 73.4085C158.976 73.6521 158.899 73.9709 158.652 74.25C158.346 74.597 157.932 74.7575 157.626 74.8412C157.298 74.9312 156.945 74.9723 156.62 74.9895C155.969 75.0238 155.293 74.9683 154.86 74.907C154.313 74.8296 153.933 74.3235 154.01 73.7767C154.087 73.2299 154.593 72.8493 155.14 72.9268C155.481 72.975 156.024 73.0181 156.515 72.9922C156.682 72.9834 156.828 72.9672 156.947 72.9457C156.931 72.868 156.91 72.7788 156.886 72.6728C156.844 72.485 156.793 72.2599 156.746 72.0096C156.552 70.9834 156.422 69.5537 156.94 67.7272C157.091 67.1959 157.644 66.8873 158.175 67.0379Z" fill="#FF896F"/>
<path fill-rule="evenodd" clip-rule="evenodd" d="M147.367 78.0026C147.802 77.6728 148.438 77.7589 148.787 78.195C148.787 78.1947 148.787 78.1947 148.787 78.1951C148.79 78.1982 148.812 78.2226 148.866 78.266C148.924 78.3125 149.004 78.3689 149.108 78.4326C149.315 78.5607 149.586 78.699 149.9 78.8318C150.532 79.1005 151.257 79.3134 151.857 79.3891C153.633 79.6133 154.501 79.5831 155.075 79.4196C155.606 79.2683 156.175 79.5716 156.345 80.097C156.515 80.6224 156.223 81.1709 155.692 81.3222C154.693 81.6067 153.465 81.5808 151.658 81.3527C150.825 81.2476 149.911 80.9708 149.144 80.6452C148.757 80.4809 148.387 80.2959 148.069 80.1C147.769 79.915 147.444 79.6776 147.213 79.3894C146.864 78.9533 146.933 78.3324 147.367 78.0026Z" fill="#E20560"/>
<path d="M168 66C168 67.6569 166.881 69 165.5 69C164.119 69 163 67.6569 163 66C163 64.3431 164.119 63 165.5 63C166.881 63 168 64.3431 168 66Z" fill="#0F1013"/>
<path d="M152 65C152 66.6569 150.881 68 149.5 68C148.119 68 147 66.6569 147 65C147 63.3431 148.119 62 149.5 62C150.881 62 152 63.3431 152 65Z" fill="#0F1013"/>
<path fill-rule="evenodd" clip-rule="evenodd" d="M147.112 63.4892C145.81 63.5983 144.895 64.2498 144.374 64.8564C144.02 65.2695 143.385 65.312 142.956 64.9514C142.527 64.5909 142.467 63.9638 142.822 63.5507C143.605 62.6376 144.967 61.6718 146.888 61.5108C147.994 61.4182 148.944 61.811 149.663 62.2964C150.376 62.7781 150.914 63.384 151.245 63.8378C151.574 64.2885 151.477 64.9069 151.028 65.2192C150.58 65.5314 149.949 65.4191 149.621 64.9684C149.386 64.6476 149.014 64.2344 148.555 63.9245C148.101 63.6182 147.618 63.4468 147.112 63.4892Z" fill="#0F1013"/>
<path fill-rule="evenodd" clip-rule="evenodd" d="M146.684 58C143.715 58 142.69 58.2132 141.282 58.6263C140.752 58.7817 140.196 58.478 140.041 57.948C139.885 57.4181 140.189 56.8625 140.719 56.7071C142.342 56.2312 143.56 56 146.684 56C148.349 56 149.889 56.3629 151.097 56.8128C152.262 57.2467 153.252 57.8117 153.726 58.3123C154.106 58.7132 154.089 59.3461 153.688 59.726C153.287 60.1058 152.654 60.0887 152.274 59.6877C152.117 59.5216 151.472 59.0867 150.399 58.6872C149.369 58.3037 148.067 58 146.684 58Z" fill="#E20560"/>
<path fill-rule="evenodd" clip-rule="evenodd" d="M163.928 60.0276C162.209 60.2339 161.642 60.3957 160.865 60.6676C160.346 60.8495 159.77 60.5753 159.579 60.055C159.388 59.5348 159.655 58.9655 160.174 58.7836C161.112 58.4551 161.825 58.2659 163.658 58.0459C164.65 57.9268 165.591 57.9786 166.344 58.0938C166.721 58.1515 167.06 58.2267 167.344 58.3092C167.608 58.3857 167.887 58.4864 168.105 58.6181C168.581 58.9064 168.738 59.521 168.456 59.9907C168.174 60.4604 167.559 60.6074 167.083 60.319C167.086 60.3208 167.085 60.3203 167.079 60.3179C167.059 60.3089 166.977 60.2728 166.811 60.2246C166.622 60.1696 166.37 60.1124 166.069 60.0664C165.467 59.9742 164.712 59.9335 163.928 60.0276Z" fill="#E20560"/>
<path fill-rule="evenodd" clip-rule="evenodd" d="M164 65C162.66 65 161.849 65.5651 161.707 65.7071C161.317 66.0976 160.683 66.0976 160.293 65.7071C159.902 65.3166 159.902 64.6834 160.293 64.2929C160.818 63.7682 162.14 63 164 63C165.092 63 165.975 63.4572 166.609 63.9766C167.234 64.4892 167.67 65.1035 167.894 65.5528C168.141 66.0468 167.941 66.6474 167.447 66.8944C166.953 67.1414 166.353 66.9412 166.106 66.4472C165.997 66.2299 165.732 65.8441 165.341 65.5234C164.958 65.2095 164.508 65 164 65Z" fill="#0F1013"/>
<path fill-rule="evenodd" clip-rule="evenodd" d="M128.169 69.0001C127.999 68.9972 127.816 69.0839 127.686 69.2059C127.284 69.5849 126.652 69.5664 126.273 69.1646C125.894 68.7629 125.912 68.13 126.314 67.751C126.718 67.37 127.382 66.9867 128.202 67.0004C129.07 67.0148 129.901 67.4682 130.594 68.3737C131.065 68.9894 131.407 69.7743 131.628 70.4058C131.741 70.7302 131.829 71.0361 131.891 71.2911C131.944 71.5115 132 71.7845 132 72C132 72.5523 131.552 73 131 73C130.448 73 130 72.5523 130 72C130 72.0097 130 72.0148 130 72.0148C129.998 72.015 129.989 71.9378 129.947 71.7603C129.901 71.5721 129.832 71.3294 129.739 71.0645C129.548 70.5174 129.29 69.9608 129.006 69.5894C128.595 69.0519 128.292 69.0021 128.169 69.0001Z" fill="#FF896F"/>
<path fill-rule="evenodd" clip-rule="evenodd" d="M125.261 79.0346C125.794 79.1787 126.109 79.7278 125.965 80.2609C125.235 82.9618 124.122 85.8936 121.638 88.8521C119.161 91.8019 115.373 94.718 109.381 97.4894C91.5886 105.719 79.3703 119.812 81.1781 134.863C81.9245 141.076 83.1065 144.961 84.43 147.635C85.7449 150.292 87.2247 151.81 88.7071 153.293C89.0977 153.683 89.0977 154.317 88.7071 154.707C88.3166 155.098 87.6834 155.098 87.2929 154.707C85.7754 153.19 84.1026 151.483 82.6375 148.522C81.181 145.579 79.9556 141.455 79.1924 135.101C77.2263 118.733 90.4817 104.027 108.541 95.6742C114.342 92.9911 117.866 90.2345 120.107 87.5661C122.34 84.9064 123.349 82.2746 124.035 79.7391C124.179 79.2059 124.728 78.8905 125.261 79.0346Z" fill="#AB0046"/>
<path fill-rule="evenodd" clip-rule="evenodd" d="M112.765 60.7647C116.108 51.5374 119.916 42.0346 130.58 37.0927L131.421 38.9073C121.585 43.4653 118 52.1862 114.646 61.4458C114.465 61.9436 114.286 62.4432 114.105 62.9439C110.978 71.64 107.733 80.6634 99.012 85.8591C87.3306 92.8182 80.28 99.4406 76.717 106.989C73.163 114.519 73.0002 123.14 75.4764 134.283L73.524 134.717C71.0003 123.36 71.0874 114.231 74.9083 106.136C78.7203 98.0594 86.1697 91.1817 97.9884 84.1409C106.074 79.3237 109.091 70.9541 112.285 62.0954C112.444 61.6529 112.604 61.2092 112.765 60.7647Z" fill="#E20560"/>
<path d="M134 78C134 79.6569 132.657 81 131 81C129.343 81 128 79.6569 128 78C128 76.3431 129.343 75 131 75C132.657 75 134 76.3431 134 78Z" fill="white"/>
<path d="M319 220C319 222.761 293.48 225 262 225C230.52 225 205 222.761 205 220C205 217.239 230.52 215 262 215C293.48 215 319 217.239 319 220Z" fill="#E5F1FF"/>
<path fill-rule="evenodd" clip-rule="evenodd" d="M310 122H207C203.134 122 200 125.134 200 129V194C200 197.866 203.134 201 207 201H310C313.866 201 317 197.866 317 194V129C317 125.134 313.866 122 310 122ZM207 120C202.029 120 198 124.029 198 129V194C198 198.971 202.029 203 207 203H310C314.971 203 319 198.971 319 194V129C319 124.029 314.971 120 310 120H207Z" fill="#185CCD"/>
<path d="M200 129C200 125.134 203.134 122 207 122H314C317.866 122 321 125.134 321 129V198C321 201.866 317.866 205 314 205H207C203.134 205 200 201.866 200 198V129Z" fill="#74BBFF"/>
<path d="M255 173C255 172.448 255.448 172 256 172H274C274.552 172 275 172.448 275 173C275 173.552 274.552 174 274 174H256C255.448 174 255 173.552 255 173Z" fill="white"/>
<path d="M256.834 173C256.834 172.448 257.282 172 257.834 172H275.834C276.386 172 276.834 172.448 276.834 173C276.834 173.552 276.386 174 275.834 174H257.834C257.282 174 256.834 173.552 256.834 173Z" fill="#185CCD"/>
<path fill-rule="evenodd" clip-rule="evenodd" d="M256.948 175C255.229 175 253.702 176.099 253.156 177.73L240.324 216.047C239.673 217.991 241.119 220 243.168 220H272C273.657 220 275 218.657 275 217V178C275 176.343 273.657 175 272 175H256.948ZM263 201C266.314 201 269 198.314 269 195C269 191.686 266.314 189 263 189C259.686 189 257 191.686 257 195C257 198.314 259.686 201 263 201Z" fill="white"/>
<path fill-rule="evenodd" clip-rule="evenodd" d="M258.782 175C257.063 175 255.536 176.099 254.99 177.73L242.158 216.047C241.507 217.991 242.953 220 245.002 220H273.834C275.491 220 276.834 218.657 276.834 217V178C276.834 176.343 275.491 175 273.834 175H258.782ZM264.834 201C268.148 201 270.834 198.314 270.834 195C270.834 191.686 268.148 189 264.834 189C261.52 189 258.834 191.686 258.834 195C258.834 198.314 261.52 201 264.834 201Z" fill="#185CCD"/>
<path d="M275 148C275 153.523 270.523 158 265 158C259.477 158 255 153.523 255 148C255 142.477 259.477 138 265 138C270.523 138 275 142.477 275 148Z" fill="#98CCFE"/>
<path fill-rule="evenodd" clip-rule="evenodd" d="M228.15 80.4002L234.782 80.4074L234.801 62.4276L237.987 62.4311L237.993 57.4363L234.807 57.4328L234.816 49.0301L215.006 49.0086C214.682 51.6926 214.307 54.4932 213.884 57.4102L208.024 57.4039L208.019 62.3986L213.131 62.4042C212.568 66.0485 212.105 68.7218 211.742 70.4241C211.354 72.298 210.938 73.5853 210.493 74.2859C210.049 74.9722 209.448 75.315 208.689 75.3141L207.006 75.3123L207 80.8066L209.521 80.8093C211.738 80.8403 213.499 80.2556 214.802 79.0551C216.105 77.8547 217.095 75.7811 217.771 72.8344C218.291 70.5992 218.871 67.1247 219.508 62.4111L228.169 62.4204L228.15 80.4002ZM228.175 57.4257L228.178 54.5601L220.495 54.5517L220.149 57.417L228.175 57.4257Z" fill="#74BBFF"/>
<path fill-rule="evenodd" clip-rule="evenodd" d="M204.44 39.7149L209.025 39.7199L209.038 27.2915L211.241 27.2939L211.244 23.841L209.042 23.8387L209.048 18.0292L195.354 18.0144C195.13 19.87 194.871 21.8062 194.578 23.823L190.527 23.8186L190.524 27.2714L194.058 27.2753C193.669 29.7941 193.349 31.6419 193.098 32.8186C192.83 34.114 192.542 35.0039 192.235 35.4882C191.927 35.9626 191.512 36.1996 190.988 36.199L189.824 36.1977L189.819 39.9958L191.562 39.9977C193.095 40.0192 194.312 39.615 195.213 38.7851C196.114 37.9552 196.798 36.5218 197.265 34.4848C197.625 32.9397 198.026 30.5382 198.466 27.28L204.454 27.2865L204.44 39.7149ZM204.457 23.8337L204.46 21.852L199.148 21.8463L198.909 23.8277L204.457 23.8337Z" fill="white"/>
<path d="M267 73C267 70.2386 269.239 68 272 68H329C331.761 68 334 70.2386 334 73V99C334 101.761 331.761 104 329 104H272C269.239 104 267 101.761 267 99V73Z" fill="#185CCD"/>
<path fill-rule="evenodd" clip-rule="evenodd" d="M304 80C304 79.4477 304.448 79 305 79H320C320.552 79 321 79.4477 321 80C321 80.5523 320.552 81 320 81H305C304.448 81 304 80.5523 304 80Z" fill="white"/>
<path fill-rule="evenodd" clip-rule="evenodd" d="M304 85C304 84.4477 304.448 84 305 84H320C320.552 84 321 84.4477 321 85C321 85.5523 320.552 86 320 86H305C304.448 86 304 85.5523 304 85Z" fill="white"/>
<path fill-rule="evenodd" clip-rule="evenodd" d="M304 90C304 89.4477 304.448 89 305 89H320C320.552 89 321 89.4477 321 90C321 90.5523 320.552 91 320 91H305C304.448 91 304 90.5523 304 90Z" fill="white"/>
<path fill-rule="evenodd" clip-rule="evenodd" d="M287.716 94.3772L291.39 94.3812L291.4 84.4211L293.165 84.423L293.168 81.6561L291.403 81.6542L291.408 76.9993L280.435 76.9874C280.255 78.4743 280.048 80.0257 279.813 81.6417L276.567 81.6382L276.564 84.4051L279.396 84.4081C279.084 86.4269 278.828 87.9078 278.627 88.8508C278.412 89.8889 278.181 90.602 277.935 90.9901C277.689 91.3703 277.356 91.5602 276.936 91.5597L276.003 91.5587L275.999 94.6023L277.396 94.6039C278.624 94.621 279.6 94.2971 280.322 93.6321C281.044 92.9671 281.592 91.8184 281.966 90.186C282.255 88.9478 282.576 87.0231 282.929 84.412L287.727 84.4172L287.716 94.3772ZM287.73 81.6502L287.731 80.0627L283.475 80.0581L283.284 81.6454L287.73 81.6502Z" fill="white"/>
<path d="M277 113V103H286L277 113Z" fill="#185CCD"/>
<path d="M28 27C28 24.2386 30.2386 22 33 22H83C85.7614 22 88 24.2386 88 27V53C88 55.7614 85.7614 58 83 58H33C30.2386 58 28 55.7614 28 53V27Z" fill="#98CCFE"/>
<path fill-rule="evenodd" clip-rule="evenodd" d="M46.0001 31.4037C45.8026 31.4037 45.6094 31.4622 45.4451 31.5718L38.4451 36.2378C38.4451 36.2378 38.4451 36.2378 38.4451 36.2378C38.3208 36.3208 38.2168 36.4304 38.1406 36.5585L45.4448 41.4279C45.6091 41.5376 45.8026 41.5963 46.0001 41.5963C46.1977 41.5963 46.3908 41.5378 46.5551 41.4281L53.8596 36.5585C53.7834 36.4304 53.6794 36.3208 53.5552 36.2379C53.5551 36.2379 53.5552 36.2379 53.5552 36.2379L46.5555 31.5721C46.3911 31.4624 46.1977 31.4037 46.0001 31.4037ZM55.9998 37.0275C56.001 36.9851 55.9995 36.9426 55.9953 36.9002C55.9707 36.4653 55.8516 36.0401 55.6455 35.6548C55.4126 35.2194 55.0759 34.8482 54.6651 34.5741L47.6651 29.9081C47.1722 29.5794 46.5926 29.4037 46.0001 29.4037C45.4076 29.4037 44.8284 29.5791 44.3355 29.9079C44.3356 29.9078 44.3353 29.908 44.3355 29.9079L37.3355 34.5739C36.9247 34.8479 36.5876 35.2194 36.3547 35.6548C36.1486 36.0401 36.0295 36.4653 36.0049 36.9002C36.0007 36.9426 35.9992 36.9851 36.0004 37.0275C36.0002 37.0416 36.0001 37.0558 36.0001 37.07C36.0001 37.0699 36.0001 37.07 36.0001 37.07V46C36.0001 46.7956 36.3162 47.5587 36.8788 48.1213C37.4414 48.6839 38.2045 49 39.0001 49H53.0001C53.7958 49 54.5588 48.6839 55.1214 48.1213C55.684 47.5587 56.0001 46.7956 56.0001 46V37.0701C56.0001 37.0702 56.0001 37.0701 56.0001 37.0701C56.0001 37.056 56 37.0416 55.9998 37.0275ZM54.0001 38.8685L50.0529 41.5L54.0001 44.1315V38.8685ZM53.8878 46.4603L48.2501 42.7018L47.6651 43.0918C47.665 43.0919 47.6652 43.0918 47.6651 43.0918C47.1722 43.4206 46.5926 43.5963 46.0001 43.5963C45.4076 43.5963 44.8283 43.4208 44.3354 43.092C44.3353 43.092 44.3355 43.0921 44.3354 43.092L43.7501 42.7018L38.1124 46.4603C38.1591 46.5505 38.2198 46.6339 38.293 46.7071C38.4805 46.8946 38.7349 47 39.0001 47H53.0001C53.2653 47 53.5197 46.8946 53.7072 46.7071C53.7804 46.6339 53.8411 46.5505 53.8878 46.4603ZM38.0001 44.1315L41.9473 41.5L38.0001 38.8685V44.1315Z" fill="white"/>
<path fill-rule="evenodd" clip-rule="evenodd" d="M72.6322 47.7844L75.9659 47.788L75.9756 38.75L77.5771 38.7517L77.5798 36.2409L75.9783 36.2392L75.9829 32.0151L66.025 32.0043C65.8619 33.3536 65.6738 34.7614 65.4607 36.2278L62.515 36.2246L62.5123 38.7354L65.0824 38.7382C64.7995 40.5701 64.5668 41.9139 64.3843 42.7696C64.1891 43.7116 63.9798 44.3587 63.7565 44.7109C63.5331 45.0559 63.2309 45.2281 62.8497 45.2277L62.0033 45.2268L62.0003 47.9887L63.2674 47.9901C64.3823 48.0057 65.2672 47.7117 65.9224 47.1083C66.5776 46.5048 67.075 45.4625 67.4146 43.9812C67.6764 42.8576 67.9676 41.1111 68.2882 38.7416L72.642 38.7464L72.6322 47.7844ZM72.6447 36.2356L72.6462 34.795L68.7839 34.7908L68.6103 36.2312L72.6447 36.2356Z" fill="white"/>
<path d="M80 67.7905C80 69.4061 73.3333 61.283 70 57.0195L80 55V67.7905Z" fill="#98CCFE"/>
<path fill-rule="evenodd" clip-rule="evenodd" d="M285.795 11.6066L271.827 29.9096L255.045 19.182L241.778 35.6278L240.222 34.3721L254.613 16.5322L271.354 27.2333L284.205 10.3933L285.795 11.6066Z" fill="#98CCFE"/>
<path d="M242 36C242 37.1046 241.105 38 240 38C238.895 38 238 37.1046 238 36C238 34.8954 238.895 34 240 34C241.105 34 242 34.8954 242 36Z" fill="#E20560"/>
<path d="M273 28C273 29.1046 272.105 30 271 30C269.895 30 269 29.1046 269 28C269 26.8954 269.895 26 271 26C272.105 26 273 26.8954 273 28Z" fill="#E20560"/>
<path d="M287 11C287 12.1046 286.105 13 285 13C283.895 13 283 12.1046 283 11C283 9.89543 283.895 9 285 9C286.105 9 287 9.89543 287 11Z" fill="#E20560"/>
<path d="M257 18C257 19.1046 256.105 20 255 20C253.895 20 253 19.1046 253 18C253 16.8954 253.895 16 255 16C256.105 16 257 16.8954 257 18Z" fill="#E20560"/>
<path d="M358 213C358 214.657 352.18 216 345 216C337.82 216 332 214.657 332 213C332 211.343 337.82 210 345 210C352.18 210 358 211.343 358 213Z" fill="#E5F1FF"/>
<path d="M332.403 185.34C332.192 184.117 333.134 183 334.374 183H355.625C356.866 183 357.807 184.117 357.596 185.34L353.286 210.34C353.121 211.299 352.288 212 351.315 212H338.684C337.711 212 336.879 211.299 336.713 210.34L332.403 185.34Z" fill="#98CCFE"/>
<path d="M359.527 156.984C349.415 161.273 346.693 174.817 347.027 182.484C351.193 178.15 352.527 168.484 369.527 165.484C380.133 163.612 376.027 149.984 359.527 156.984Z" fill="#74BBFF"/>
<path d="M342.875 149.643C338.012 160.298 341.748 176.993 347.261 183.04C347.71 176.646 347.138 163.84 359.002 149.765C366.404 140.984 350.993 131.855 342.875 149.643Z" fill="#74BBFF"/>
<path d="M332.522 159.804C341.787 163.706 344.281 176.026 343.976 183C337 178 338.936 171.265 323.359 168.536C313.64 166.834 317.403 153.437 332.522 159.804Z" fill="#74BBFF"/>
<path d="M371.149 167.329C360.303 165.599 350.808 175.634 347.022 182.309C352.854 180.847 359.113 173.361 375.114 179.84C385.097 183.882 388.849 170.152 371.149 167.329Z" fill="#74BBFF"/>
<path d="M371.97 189.595C367.289 179.659 353.649 180.468 346.001 181.101C350.494 185.095 360.205 186.049 363.868 202.919C366.153 213.444 379.61 205.808 371.97 189.595Z" fill="#74BBFF"/>
<path d="M343.5 183L342.5 174.5L350.5 172L349 183H343.5Z" fill="#74BBFF"/>
<path d="M321.47 170.47C331.1 168.414 340.068 176.955 343.77 182.753C338.481 181.717 332.631 177.306 318.609 183.853C309.861 187.938 305.757 173.824 321.47 170.47Z" fill="#74BBFF"/>
<path fill-rule="evenodd" clip-rule="evenodd" d="M351.77 147.579C352.002 147.729 352.069 148.038 351.92 148.27C350.447 150.562 347.74 155.846 346.49 162.098C344.979 169.655 345.767 174.981 346.235 178.142C346.383 179.145 346.5 179.931 346.5 180.5C346.5 180.776 346.276 181 346 181C345.724 181 345.5 180.776 345.5 180.5C345.5 180.057 345.399 179.381 345.265 178.486C344.804 175.396 343.952 169.689 345.509 161.902C346.788 155.505 349.552 150.105 351.079 147.73C351.228 147.497 351.538 147.43 351.77 147.579Z" fill="white"/>
<path fill-rule="evenodd" clip-rule="evenodd" d="M363.95 161.12C364.057 161.374 363.939 161.668 363.684 161.775C361.667 162.629 357.53 164.912 354.112 168.49C351.406 171.321 349.809 173.994 348.78 176.135C348.266 177.207 347.893 178.148 347.592 178.918C347.569 178.978 347.546 179.036 347.523 179.094C347.261 179.767 347.037 180.343 346.813 180.717C346.671 180.954 346.364 181.031 346.127 180.89C345.89 180.748 345.813 180.441 345.955 180.204C346.133 179.905 346.328 179.407 346.613 178.676C346.629 178.636 346.644 178.596 346.66 178.555C346.963 177.779 347.347 176.81 347.879 175.702C348.944 173.484 350.598 170.719 353.389 167.799C356.922 164.101 361.182 161.748 363.294 160.854C363.549 160.747 363.842 160.866 363.95 161.12Z" fill="white"/>
<defs>
<linearGradient id="paint0_linear" x1="358.754" y1="20.2944" x2="248.978" y2="256.64" gradientUnits="userSpaceOnUse">
<stop stop-color="#F1F4FD"/>
<stop offset="1" stop-color="#DCE1F7"/>
</linearGradient>
</defs>
</svg>
