<svg width="28" height="35" viewBox="0 0 28 35" fill="none" xmlns="http://www.w3.org/2000/svg">
<path d="M27.3001 11.35C25.8223 5.12221 20.3334 0.794434 14.0001 0.794434C6.40005 0.794434 0.277832 6.91666 0.277832 14.5167C0.277832 21.6944 5.87228 27.6055 12.9445 28.1333V33.4111C12.9445 34.0444 13.3667 34.4667 14.0001 34.4667C14.6334 34.4667 15.0556 34.0444 15.0556 33.4111V22.2222V18.3167L20.0167 13.3555C20.4389 12.9333 20.4389 12.3 20.0167 11.8778C19.5945 11.4555 18.9612 11.4555 18.5389 11.8778L15.0556 15.4667V12.3L11.5723 8.81666C11.1501 8.39443 10.5167 8.39443 10.0945 8.81666C9.67228 9.23888 9.67228 9.87221 10.0945 10.2944L12.9445 13.1444V19.6889L8.93339 15.6778C8.51117 15.2555 7.87783 15.2555 7.45561 15.6778C7.03339 16.1 7.03339 16.7333 7.45561 17.1555L12.9445 22.6444V26.0222C7.03339 25.4944 2.38894 20.5333 2.38894 14.5167C2.38894 8.07777 7.56117 2.90554 14.0001 2.90554C20.4389 2.90554 25.6112 8.07777 25.6112 14.5167C25.6112 19.6889 22.1278 24.2278 17.1667 25.7055V27.9222C24.5556 26.1278 29.0945 18.7389 27.3001 11.35Z" fill="white"/>
</svg>
